<svg width="44" height="45" viewBox="0 0 44 45" fill="none" xmlns="http://www.w3.org/2000/svg">
<path d="M42.7973 22.3571C42.7973 33.9518 33.4781 43.3392 21.997 43.3392C10.5159 43.3392 1.19671 33.9518 1.19671 22.3571C1.19671 10.7623 10.5159 1.37493 21.997 1.37493C33.4781 1.37493 42.7973 10.7623 42.7973 22.3571Z" stroke="#05054B" stroke-width="1.67857"/>
<path d="M10.7319 12.7249H12.0325C12.6604 12.7249 12.9744 12.7249 13.2287 12.8393C13.4528 12.9402 13.6437 13.1026 13.7792 13.3077C13.9329 13.5404 13.9833 13.8503 14.0839 14.4701L14.4232 16.5607M14.4232 16.5607L15.2177 21.4552C15.4389 22.8183 15.5495 23.4998 15.8957 23.9899C16.2003 24.4213 16.6293 24.7496 17.1253 24.9311C17.6888 25.1372 18.3756 25.0659 19.7491 24.9235L28.548 24.0112C29.3213 23.931 29.7079 23.8909 30.0245 23.7709C30.8076 23.4738 31.3995 22.8174 31.6142 22.0078C31.701 21.6805 31.701 21.2918 31.701 20.5144V20.5144C31.701 19.6848 31.701 19.27 31.6056 18.9278C31.3692 18.0799 30.7196 17.4094 29.8797 17.1463C29.5407 17.0401 29.1261 17.027 28.2969 17.0007L14.4232 16.5607Z" stroke="#05054B" stroke-width="1.55867" stroke-linecap="round" stroke-linejoin="round"/>
<ellipse cx="18.4032" cy="30.8079" rx="2.04576" ry="2.19189" stroke="#05054B" stroke-width="1.55867"/>
<ellipse cx="28.121" cy="30.8079" rx="2.04576" ry="2.19189" stroke="#05054B" stroke-width="1.55867"/>
</svg>
