<svg width="20" height="18" viewBox="0 0 20 18" fill="none" xmlns="http://www.w3.org/2000/svg">
<path d="M9.99984 17L9.64628 17.3536C9.74005 17.4473 9.86723 17.5 9.99984 17.5C10.1324 17.5 10.2596 17.4473 10.3534 17.3536L9.99984 17ZM2.04721 9.04738L1.69366 9.40093L1.69366 9.40093L2.04721 9.04738ZM8.71388 2.38071L8.36033 2.73427V2.73427L8.71388 2.38071ZM9.99984 3.66667L9.64628 4.02022C9.84155 4.21548 10.1581 4.21548 10.3534 4.02022L9.99984 3.66667ZM11.2858 2.38071L10.9322 2.02716V2.02716L11.2858 2.38071ZM10.3534 16.6464L2.40077 8.69382L1.69366 9.40093L9.64628 17.3536L10.3534 16.6464ZM17.5989 8.69383L9.64628 16.6464L10.3534 17.3536L18.306 9.40093L17.5989 8.69383ZM8.36033 2.73427L9.64628 4.02022L10.3534 3.31311L9.06744 2.02716L8.36033 2.73427ZM10.3534 4.02022L11.6393 2.73426L10.9322 2.02716L9.64628 3.31311L10.3534 4.02022ZM14.6191 0.5C13.2363 0.5 11.9101 1.04933 10.9322 2.02716L11.6393 2.73426C12.4296 1.94398 13.5015 1.5 14.6191 1.5V0.5ZM18.8332 5.71405C18.8332 6.83168 18.3892 7.90354 17.5989 8.69383L18.306 9.40093C19.2838 8.42311 19.8332 7.0969 19.8332 5.71405H18.8332ZM19.8332 5.71405C19.8332 2.83441 17.4988 0.5 14.6191 0.5V1.5C16.9465 1.5 18.8332 3.38669 18.8332 5.71405H19.8332ZM5.38055 1.5C6.49818 1.5 7.57004 1.94398 8.36033 2.73427L9.06744 2.02716C8.08961 1.04934 6.7634 0.5 5.38055 0.5V1.5ZM1.1665 5.71405C1.1665 3.38669 3.0532 1.5 5.38055 1.5V0.5C2.50091 0.5 0.166504 2.83441 0.166504 5.71405H1.1665ZM2.40077 8.69382C1.61048 7.90354 1.1665 6.83168 1.1665 5.71405H0.166504C0.166504 7.0969 0.715837 8.42311 1.69366 9.40093L2.40077 8.69382Z" fill="#3BDE15"/>
</svg>
